<mxfile host="app.diagrams.net" modified="2022-07-15T06:40:37.040Z" agent="5.0 (Macintosh; Intel Mac OS X 10_15_7) AppleWebKit/537.36 (KHTML, like Gecko) Chrome/103.0.0.0 Safari/537.36" etag="UItSF-GYQpJgp1XBg5eP" version="20.0.4" type="github">
  <diagram id="Z8lVa7MjZBIe1K_a2Y8Q" name="第 1 页">
    <mxGraphModel dx="1186" dy="657" grid="1" gridSize="10" guides="0" tooltips="1" connect="1" arrows="1" fold="1" page="1" pageScale="1" pageWidth="827" pageHeight="1169" background="#ffffff" math="0" shadow="0">
      <root>
        <mxCell id="0" />
        <mxCell id="1" parent="0" />
        <mxCell id="hmE0dq56MhA4SZ8vjkv6-3" style="edgeStyle=orthogonalEdgeStyle;rounded=0;orthogonalLoop=1;jettySize=auto;html=1;exitX=0.5;exitY=1;exitDx=0;exitDy=0;entryX=0.5;entryY=0;entryDx=0;entryDy=0;" edge="1" parent="1" source="hmE0dq56MhA4SZ8vjkv6-2" target="hmE0dq56MhA4SZ8vjkv6-4">
          <mxGeometry relative="1" as="geometry">
            <mxPoint x="390" y="370" as="targetPoint" />
          </mxGeometry>
        </mxCell>
        <mxCell id="hmE0dq56MhA4SZ8vjkv6-2" value="开始" style="ellipse;whiteSpace=wrap;html=1;" vertex="1" parent="1">
          <mxGeometry x="330" y="210" width="120" height="80" as="geometry" />
        </mxCell>
        <mxCell id="hmE0dq56MhA4SZ8vjkv6-6" style="edgeStyle=orthogonalEdgeStyle;rounded=0;orthogonalLoop=1;jettySize=auto;html=1;exitX=0.5;exitY=1;exitDx=0;exitDy=0;entryX=0.5;entryY=0;entryDx=0;entryDy=0;" edge="1" parent="1" source="hmE0dq56MhA4SZ8vjkv6-4" target="hmE0dq56MhA4SZ8vjkv6-5">
          <mxGeometry relative="1" as="geometry" />
        </mxCell>
        <mxCell id="hmE0dq56MhA4SZ8vjkv6-4" value="检测是否发生事故" style="rounded=1;whiteSpace=wrap;html=1;" vertex="1" parent="1">
          <mxGeometry x="330" y="340" width="120" height="50" as="geometry" />
        </mxCell>
        <mxCell id="hmE0dq56MhA4SZ8vjkv6-7" value="是" style="edgeStyle=orthogonalEdgeStyle;rounded=0;orthogonalLoop=1;jettySize=auto;html=1;exitX=0;exitY=0.5;exitDx=0;exitDy=0;" edge="1" parent="1" source="hmE0dq56MhA4SZ8vjkv6-5">
          <mxGeometry relative="1" as="geometry">
            <mxPoint x="210" y="650" as="targetPoint" />
          </mxGeometry>
        </mxCell>
        <mxCell id="hmE0dq56MhA4SZ8vjkv6-8" value="否" style="edgeStyle=orthogonalEdgeStyle;rounded=0;orthogonalLoop=1;jettySize=auto;html=1;exitX=0.5;exitY=1;exitDx=0;exitDy=0;" edge="1" parent="1" source="hmE0dq56MhA4SZ8vjkv6-5">
          <mxGeometry relative="1" as="geometry">
            <mxPoint x="390" y="580" as="targetPoint" />
          </mxGeometry>
        </mxCell>
        <mxCell id="hmE0dq56MhA4SZ8vjkv6-5" value="是否发生事故" style="rhombus;whiteSpace=wrap;html=1;" vertex="1" parent="1">
          <mxGeometry x="330" y="420" width="120" height="90" as="geometry" />
        </mxCell>
        <mxCell id="hmE0dq56MhA4SZ8vjkv6-10" value="是" style="edgeStyle=orthogonalEdgeStyle;rounded=0;orthogonalLoop=1;jettySize=auto;html=1;" edge="1" parent="1" source="hmE0dq56MhA4SZ8vjkv6-9">
          <mxGeometry relative="1" as="geometry">
            <mxPoint x="210" y="630" as="targetPoint" />
          </mxGeometry>
        </mxCell>
        <mxCell id="hmE0dq56MhA4SZ8vjkv6-30" style="edgeStyle=orthogonalEdgeStyle;rounded=0;orthogonalLoop=1;jettySize=auto;html=1;exitX=0.5;exitY=1;exitDx=0;exitDy=0;" edge="1" parent="1" source="hmE0dq56MhA4SZ8vjkv6-9" target="hmE0dq56MhA4SZ8vjkv6-29">
          <mxGeometry relative="1" as="geometry">
            <Array as="points">
              <mxPoint x="390" y="1530" />
            </Array>
          </mxGeometry>
        </mxCell>
        <mxCell id="hmE0dq56MhA4SZ8vjkv6-31" value="否" style="edgeLabel;html=1;align=center;verticalAlign=middle;resizable=0;points=[];" vertex="1" connectable="0" parent="hmE0dq56MhA4SZ8vjkv6-30">
          <mxGeometry x="-0.3265" y="-1" relative="1" as="geometry">
            <mxPoint as="offset" />
          </mxGeometry>
        </mxCell>
        <mxCell id="hmE0dq56MhA4SZ8vjkv6-9" value="是否人工提取凭证" style="rhombus;whiteSpace=wrap;html=1;" vertex="1" parent="1">
          <mxGeometry x="350" y="580" width="80" height="80" as="geometry" />
        </mxCell>
        <mxCell id="hmE0dq56MhA4SZ8vjkv6-12" value="提取前后几分钟凭证" style="rounded=1;whiteSpace=wrap;html=1;" vertex="1" parent="1">
          <mxGeometry x="150" y="650" width="120" height="60" as="geometry" />
        </mxCell>
        <mxCell id="hmE0dq56MhA4SZ8vjkv6-13" value="包含视频数据，雷达检测数据， 合成的 360 全景数据， 以及高精地图数据" style="shape=tape;whiteSpace=wrap;html=1;strokeWidth=2;size=0.19" vertex="1" parent="1">
          <mxGeometry x="20" y="610" width="120" height="115" as="geometry" />
        </mxCell>
        <mxCell id="hmE0dq56MhA4SZ8vjkv6-17" style="edgeStyle=orthogonalEdgeStyle;rounded=0;orthogonalLoop=1;jettySize=auto;html=1;exitX=0.5;exitY=1;exitDx=0;exitDy=0;" edge="1" parent="1" source="hmE0dq56MhA4SZ8vjkv6-15">
          <mxGeometry relative="1" as="geometry">
            <mxPoint x="210" y="910" as="targetPoint" />
          </mxGeometry>
        </mxCell>
        <mxCell id="hmE0dq56MhA4SZ8vjkv6-15" value="生成关键帧图片，时间轴图片，以及视频" style="shape=ext;double=1;rounded=1;whiteSpace=wrap;html=1;" vertex="1" parent="1">
          <mxGeometry x="150" y="770" width="120" height="80" as="geometry" />
        </mxCell>
        <mxCell id="hmE0dq56MhA4SZ8vjkv6-16" value="" style="edgeStyle=orthogonalEdgeStyle;rounded=0;orthogonalLoop=1;jettySize=auto;html=1;exitX=0.5;exitY=1;exitDx=0;exitDy=0;endArrow=none;" edge="1" parent="1" source="hmE0dq56MhA4SZ8vjkv6-12" target="hmE0dq56MhA4SZ8vjkv6-15">
          <mxGeometry relative="1" as="geometry">
            <mxPoint x="210" y="780" as="targetPoint" />
            <mxPoint x="210" y="710" as="sourcePoint" />
          </mxGeometry>
        </mxCell>
        <mxCell id="hmE0dq56MhA4SZ8vjkv6-19" style="edgeStyle=orthogonalEdgeStyle;rounded=0;orthogonalLoop=1;jettySize=auto;html=1;exitX=0.5;exitY=1;exitDx=0;exitDy=0;" edge="1" parent="1" source="hmE0dq56MhA4SZ8vjkv6-18">
          <mxGeometry relative="1" as="geometry">
            <mxPoint x="220" y="1030" as="targetPoint" />
          </mxGeometry>
        </mxCell>
        <mxCell id="hmE0dq56MhA4SZ8vjkv6-18" value="上传到服务器存储" style="rounded=1;whiteSpace=wrap;html=1;" vertex="1" parent="1">
          <mxGeometry x="160" y="910" width="120" height="60" as="geometry" />
        </mxCell>
        <mxCell id="hmE0dq56MhA4SZ8vjkv6-23" style="edgeStyle=orthogonalEdgeStyle;rounded=0;orthogonalLoop=1;jettySize=auto;html=1;exitX=0.5;exitY=1;exitDx=0;exitDy=0;entryX=0.5;entryY=0;entryDx=0;entryDy=0;" edge="1" parent="1" source="hmE0dq56MhA4SZ8vjkv6-20" target="hmE0dq56MhA4SZ8vjkv6-24">
          <mxGeometry relative="1" as="geometry">
            <mxPoint x="220" y="1320" as="targetPoint" />
          </mxGeometry>
        </mxCell>
        <mxCell id="hmE0dq56MhA4SZ8vjkv6-20" value="生成访问链接以及二维码" style="rounded=1;whiteSpace=wrap;html=1;" vertex="1" parent="1">
          <mxGeometry x="160" y="1160" width="120" height="60" as="geometry" />
        </mxCell>
        <mxCell id="hmE0dq56MhA4SZ8vjkv6-22" style="edgeStyle=orthogonalEdgeStyle;rounded=0;orthogonalLoop=1;jettySize=auto;html=1;exitX=0.5;exitY=1;exitDx=0;exitDy=0;entryX=0.5;entryY=0;entryDx=0;entryDy=0;" edge="1" parent="1" source="hmE0dq56MhA4SZ8vjkv6-21" target="hmE0dq56MhA4SZ8vjkv6-20">
          <mxGeometry relative="1" as="geometry" />
        </mxCell>
        <mxCell id="hmE0dq56MhA4SZ8vjkv6-21" value="生成可下载， 可在线播放的音视频和图片网页" style="rounded=1;whiteSpace=wrap;html=1;" vertex="1" parent="1">
          <mxGeometry x="160" y="1030" width="120" height="60" as="geometry" />
        </mxCell>
        <mxCell id="hmE0dq56MhA4SZ8vjkv6-25" style="edgeStyle=orthogonalEdgeStyle;rounded=0;orthogonalLoop=1;jettySize=auto;html=1;exitX=0.5;exitY=1;exitDx=0;exitDy=0;" edge="1" parent="1" source="hmE0dq56MhA4SZ8vjkv6-24">
          <mxGeometry relative="1" as="geometry">
            <mxPoint x="220" y="1380" as="targetPoint" />
          </mxGeometry>
        </mxCell>
        <mxCell id="hmE0dq56MhA4SZ8vjkv6-24" value="将二维码和链接推送到车机屏幕， 车主手机终端" style="rounded=1;whiteSpace=wrap;html=1;" vertex="1" parent="1">
          <mxGeometry x="160" y="1280" width="120" height="60" as="geometry" />
        </mxCell>
        <mxCell id="hmE0dq56MhA4SZ8vjkv6-27" style="edgeStyle=orthogonalEdgeStyle;rounded=0;orthogonalLoop=1;jettySize=auto;html=1;exitX=0.5;exitY=1;exitDx=0;exitDy=0;" edge="1" parent="1" source="hmE0dq56MhA4SZ8vjkv6-26">
          <mxGeometry relative="1" as="geometry">
            <mxPoint x="220" y="1490" as="targetPoint" />
          </mxGeometry>
        </mxCell>
        <mxCell id="hmE0dq56MhA4SZ8vjkv6-26" value="反馈交管部门进行事故责任鉴定" style="rounded=1;whiteSpace=wrap;html=1;" vertex="1" parent="1">
          <mxGeometry x="160" y="1380" width="120" height="60" as="geometry" />
        </mxCell>
        <mxCell id="hmE0dq56MhA4SZ8vjkv6-29" value="结束" style="ellipse;whiteSpace=wrap;html=1;" vertex="1" parent="1">
          <mxGeometry x="160" y="1490" width="120" height="80" as="geometry" />
        </mxCell>
      </root>
    </mxGraphModel>
  </diagram>
</mxfile>
